  0
SECTION
  2
BLOCKS
  0
ENDSEC
  0
SECTION
  2
ENTITIES
  0
LINE
  8
0
 10
-3
 20
-17
 11
7
 21
-17
  0
LINE
  8
0
 10
7
 20
-17
 11
7
 21
-18.6612
  0
LINE
  8
0
 10
7
 20
-18.6612
 11
7.29723
 21
-18.5996
  0
LINE
  8
0
 10
7.29723
 20
-18.5996
 11
7.65366
 21
-18.4776
  0
LINE
  8
0
 10
7.65366
 20
-18.4776
 11
7.99199
 21
-18.3118
  0
LINE
  8
0
 10
7.99199
 20
-18.3118
 11
8.30687
 21
-18.105
  0
LINE
  8
0
 10
8.30687
 20
-18.105
 11
8.59335
 21
-17.8603
  0
LINE
  8
0
 10
8.59335
 20
-17.8603
 11
17.8603
 21
-8.59335
  0
LINE
  8
0
 10
17.8603
 20
-8.59335
 11
18.105
 21
-8.30687
  0
LINE
  8
0
 10
18.105
 20
-8.30687
 11
18.3118
 21
-7.99199
  0
LINE
  8
0
 10
18.3118
 20
-7.99199
 11
18.4776
 21
-7.65366
  0
LINE
  8
0
 10
18.4776
 20
-7.65366
 11
18.5996
 21
-7.29723
  0
LINE
  8
0
 10
18.5996
 20
-7.29723
 11
18.676
 21
-6.92831
  0
LINE
  8
0
 10
18.676
 20
-6.92831
 11
18.7056
 21
-6.55273
  0
LINE
  8
0
 10
18.7056
 20
-6.55273
 11
18.7056
 21
6.55273
  0
LINE
  8
0
 10
18.7056
 20
6.55273
 11
18.676
 21
6.92831
  0
LINE
  8
0
 10
18.676
 20
6.92831
 11
18.5996
 21
7.29723
  0
LINE
  8
0
 10
18.5996
 20
7.29723
 11
18.4776
 21
7.65366
  0
LINE
  8
0
 10
18.4776
 20
7.65366
 11
18.3118
 21
7.99199
  0
LINE
  8
0
 10
18.3118
 20
7.99199
 11
18.105
 21
8.30687
  0
LINE
  8
0
 10
18.105
 20
8.30687
 11
17.8603
 21
8.59335
  0
LINE
  8
0
 10
17.8603
 20
8.59335
 11
8.59335
 21
17.8603
  0
LINE
  8
0
 10
8.59335
 20
17.8603
 11
8.30687
 21
18.105
  0
LINE
  8
0
 10
8.30687
 20
18.105
 11
7.99199
 21
18.3118
  0
LINE
  8
0
 10
7.99199
 20
18.3118
 11
7.65366
 21
18.4776
  0
LINE
  8
0
 10
7.65366
 20
18.4776
 11
7.29723
 21
18.5996
  0
LINE
  8
0
 10
7.29723
 20
18.5996
 11
6.92831
 21
18.676
  0
LINE
  8
0
 10
6.92831
 20
18.676
 11
6.55273
 21
18.7056
  0
LINE
  8
0
 10
6.55273
 20
18.7056
 11
-6.55273
 21
18.7056
  0
LINE
  8
0
 10
-6.55273
 20
18.7056
 11
-6.92831
 21
18.676
  0
LINE
  8
0
 10
-6.92831
 20
18.676
 11
-7.29723
 21
18.5996
  0
LINE
  8
0
 10
-7.29723
 20
18.5996
 11
-7.65366
 21
18.4776
  0
LINE
  8
0
 10
-7.65366
 20
18.4776
 11
-7.99199
 21
18.3118
  0
LINE
  8
0
 10
-7.99199
 20
18.3118
 11
-8.30687
 21
18.105
  0
LINE
  8
0
 10
-8.30687
 20
18.105
 11
-8.59335
 21
17.8603
  0
LINE
  8
0
 10
-8.59335
 20
17.8603
 11
-17.8603
 21
8.59335
  0
LINE
  8
0
 10
-17.8603
 20
8.59335
 11
-18.105
 21
8.30687
  0
LINE
  8
0
 10
-18.105
 20
8.30687
 11
-18.3118
 21
7.99199
  0
LINE
  8
0
 10
-18.3118
 20
7.99199
 11
-18.4776
 21
7.65366
  0
LINE
  8
0
 10
-18.4776
 20
7.65366
 11
-18.5996
 21
7.29723
  0
LINE
  8
0
 10
-18.5996
 20
7.29723
 11
-18.676
 21
6.92831
  0
LINE
  8
0
 10
-18.676
 20
6.92831
 11
-18.7056
 21
6.55273
  0
LINE
  8
0
 10
-18.7056
 20
6.55273
 11
-18.7056
 21
-6.55273
  0
LINE
  8
0
 10
-18.7056
 20
-6.55273
 11
-18.676
 21
-6.92831
  0
LINE
  8
0
 10
-18.676
 20
-6.92831
 11
-18.5996
 21
-7.29723
  0
LINE
  8
0
 10
-18.5996
 20
-7.29723
 11
-18.4776
 21
-7.65366
  0
LINE
  8
0
 10
-18.4776
 20
-7.65366
 11
-18.3118
 21
-7.99199
  0
LINE
  8
0
 10
-18.3118
 20
-7.99199
 11
-18.105
 21
-8.30687
  0
LINE
  8
0
 10
-18.105
 20
-8.30687
 11
-17.8603
 21
-8.59335
  0
LINE
  8
0
 10
-17.8603
 20
-8.59335
 11
-8.59335
 21
-17.8603
  0
LINE
  8
0
 10
-8.59335
 20
-17.8603
 11
-8.30687
 21
-18.105
  0
LINE
  8
0
 10
-8.30687
 20
-18.105
 11
-7.99199
 21
-18.3118
  0
LINE
  8
0
 10
-7.99199
 20
-18.3118
 11
-7.65366
 21
-18.4776
  0
LINE
  8
0
 10
-7.65366
 20
-18.4776
 11
-7.29723
 21
-18.5996
  0
LINE
  8
0
 10
-7.29723
 20
-18.5996
 11
-6.92831
 21
-18.676
  0
LINE
  8
0
 10
-6.92831
 20
-18.676
 11
-6.55273
 21
-18.7056
  0
LINE
  8
0
 10
-6.55273
 20
-18.7056
 11
-3
 21
-18.7056
  0
LINE
  8
0
 10
-3
 20
-18.7056
 11
-3
 21
-17
  0
ENDSEC
  0
SECTION
  2
OBJECTS
  0
DICTIONARY
  0
ENDSEC
  0
EOF
